# xmcd
#
# Track frame offsets:
# 150
# 18637
# 36034
# 52791
# 68818
# 82515
# 100467
# 115291
# 133773
# 147460
# 159995
# 176317
#
# Disc length: 2564 seconds
#
#
# Revision: 1
# Processed by: cddbd v1.4PL0 Copyright (c) Steve Scherf et al.
# Submitted via: FreeRIP 2.11 
#
DISCID=950a020c
DTITLE=Delbert McClinton - Room to Breathe
DYEAR=2002
DGENRE=Country
TTITLE0=Same Kind of Crazy
TTITLE1=Smooth Talk
TTITLE2=Jungle Room
TTITLE3=Everything I Know About The Blues
TTITLE4=Blues About You Baby
TTITLE5=Lone Star Blues
TTITLE6=The Rub
TTITLE7=Won't Be Me
TTITLE8=Don't Want To Love You
TTITLE9=Ain't Lost Nothin'
TTITLE10=Money Honey
TTITLE11=New York City
EXTD=No comment.
EXTT0=
EXTT1=
EXTT2=
EXTT3=
EXTT4=
EXTT5=
EXTT6=
EXTT7=
EXTT8=
EXTT9=
EXTT10=
EXTT11=
PLAYORDER=
